<svg width="17" height="18" viewBox="0 0 17 18" fill="none" xmlns="http://www.w3.org/2000/svg">
<path d="M1 6.5278C1 3.92197 1 2.61906 1.82376 1.80953C2.64752 1 3.97335 1 6.625 1H10.375C13.0267 1 14.3525 1 15.1762 1.80953C16 2.61906 16 3.92197 16 6.5278V12.8181C16 15.2902 16 16.5263 15.2085 16.9043C14.4169 17.2824 13.4279 16.5187 11.4499 14.9914L10.8168 14.5026C9.70461 13.6438 9.14849 13.2144 8.5 13.2144C7.85151 13.2144 7.29539 13.6438 6.18317 14.5026L5.55012 14.9914C3.57207 16.5187 2.58305 17.2824 1.79153 16.9043C1 16.5263 1 15.2902 1 12.8181V6.5278Z" stroke="white" stroke-width="2"/>
</svg>
