<svg width="28" height="32" viewBox="0 0 28 32" fill="none" xmlns="http://www.w3.org/2000/svg">
<path d="M1 15.435C1 12.9268 1 11.6727 1.50703 10.5703C2.01405 9.46789 2.96625 8.65172 4.87066 7.01937L6.718 5.43593C10.1602 2.48548 11.8813 1.01025 13.9314 1.01025C15.9816 1.01025 17.7027 2.48548 21.1448 5.43593L22.9922 7.01937C24.8966 8.65172 25.8488 9.46789 26.3558 10.5703C26.8628 11.6727 26.8628 12.9268 26.8628 15.435V23.2685C26.8628 26.7519 26.8628 28.4936 25.7807 29.5757C24.6985 30.6579 22.9569 30.6579 19.4735 30.6579H8.38938C4.906 30.6579 3.1643 30.6579 2.08215 29.5757C1 28.4936 1 26.7519 1 23.2685V15.435Z" stroke="#D7A060" stroke-width="2"/>
<path d="M18.5497 30.6578V20.5737C18.5497 20.0214 18.102 19.5737 17.5497 19.5737H10.313C9.7607 19.5737 9.31299 20.0214 9.31299 20.5737V30.6578" stroke="#D7A060" stroke-width="2" stroke-linecap="round" stroke-linejoin="round"/>
</svg>
