<svg width="33" height="32" viewBox="0 0 33 32" fill="none" xmlns="http://www.w3.org/2000/svg">
<path d="M16.0245 1.69959C16.1741 1.23894 16.8258 1.23893 16.9755 1.69959L19.8147 10.4377C20.1494 11.4677 21.1093 12.1652 22.1924 12.1652H31.3801C31.8645 12.1652 32.0659 12.785 31.674 13.0697L24.241 18.4701C23.3647 19.1067 22.9981 20.2351 23.3328 21.2652L26.172 30.0033C26.3216 30.4639 25.7944 30.847 25.4025 30.5623L17.9695 25.1619C17.0932 24.5253 15.9068 24.5253 15.0305 25.1619L7.59746 30.5623C7.20561 30.847 6.67837 30.4639 6.82804 30.0033L9.66722 21.2652C10.0019 20.2351 9.63526 19.1067 8.75905 18.4701L8.17126 19.2791L8.75905 18.4701L1.32597 13.0697C0.934118 12.785 1.1355 12.1652 1.61987 12.1652H10.8076C11.8907 12.1652 12.8506 11.4677 13.1853 10.4377L16.0245 1.69959Z" stroke="#D7A060" stroke-width="2"/>
</svg>
