<svg width="20" height="18" viewBox="0 0 20 18" fill="none" xmlns="http://www.w3.org/2000/svg">
<path d="M2.33137 4.91345L4.09957 8.0078C4.37641 8.49228 4.51483 8.73452 4.51483 9.00008C4.51483 9.26565 4.37641 9.50788 4.09957 9.99236L2.33136 13.0867C1.09306 15.2538 0.473907 16.3373 0.956732 16.8746C1.43956 17.4119 2.58287 16.9117 4.86949 15.9113L16.4784 10.8324C18.2739 10.0469 19.1717 9.6541 19.1717 9.00008C19.1717 8.34607 18.2739 7.9533 16.4784 7.16776L4.86949 2.08885C2.58287 1.08845 1.43956 0.588256 0.956732 1.12558C0.473907 1.6629 1.09306 2.74641 2.33137 4.91345Z" fill="#D7A060"/>
</svg>
