<svg width="80" height="16" viewBox="0 0 80 16" fill="none" xmlns="http://www.w3.org/2000/svg">
<path d="M7.71468 0.878114C7.80449 0.601721 8.19551 0.601722 8.28532 0.878115L9.72876 5.32057C9.76892 5.44418 9.88411 5.52786 10.0141 5.52786H14.6851C14.9758 5.52786 15.0966 5.89975 14.8615 6.07057L11.0825 8.81616C10.9774 8.89255 10.9334 9.02796 10.9735 9.15157L12.417 13.594C12.5068 13.8704 12.1904 14.1003 11.9553 13.9294L8.17634 11.1838C8.07119 11.1074 7.92881 11.1075 7.82366 11.1838L4.04469 13.9294C3.80957 14.1003 3.49323 13.8704 3.58303 13.594L5.02648 9.15157C5.06664 9.02796 5.02264 8.89255 4.91749 8.81616L1.13852 6.07057C0.903402 5.89975 1.02424 5.52786 1.31485 5.52786H5.98593C6.11589 5.52786 6.23108 5.44418 6.27124 5.32057L7.71468 0.878114Z" fill="white"/>
<path d="M7.71468 0.878114C7.80449 0.601721 8.19551 0.601722 8.28532 0.878115L9.72876 5.32057C9.76892 5.44418 9.88411 5.52786 10.0141 5.52786H14.6851C14.9758 5.52786 15.0966 5.89975 14.8615 6.07057L11.0825 8.81616C10.9774 8.89255 10.9334 9.02796 10.9735 9.15157L12.417 13.594C12.5068 13.8704 12.1904 14.1003 11.9553 13.9294L8.17634 11.1838C8.07119 11.1074 7.92881 11.1075 7.82366 11.1838L4.04469 13.9294C3.80957 14.1003 3.49323 13.8704 3.58303 13.594L5.02648 9.15157C5.06664 9.02796 5.02264 8.89255 4.91749 8.81616L1.13852 6.07057C0.903402 5.89975 1.02424 5.52786 1.31485 5.52786H5.98593C6.11589 5.52786 6.23108 5.44418 6.27124 5.32057L7.71468 0.878114Z" fill="#D7A060"/>
<path d="M23.7147 0.878114C23.8045 0.601721 24.1955 0.601722 24.2853 0.878115L25.7288 5.32057C25.7689 5.44418 25.8841 5.52786 26.0141 5.52786H30.6851C30.9758 5.52786 31.0966 5.89975 30.8615 6.07057L27.0825 8.81616C26.9774 8.89255 26.9334 9.02796 26.9735 9.15157L28.417 13.594C28.5068 13.8704 28.1904 14.1003 27.9553 13.9294L24.1763 11.1838C24.0712 11.1074 23.9288 11.1075 23.8237 11.1838L20.0447 13.9294C19.8096 14.1003 19.4932 13.8704 19.583 13.594L21.0265 9.15157C21.0666 9.02796 21.0226 8.89255 20.9175 8.81616L17.1385 6.07057C16.9034 5.89975 17.0242 5.52786 17.3149 5.52786H21.9859C22.1159 5.52786 22.2311 5.44418 22.2712 5.32057L23.7147 0.878114Z" fill="#D7A060"/>
<path d="M23.7147 0.878114C23.8045 0.601721 24.1955 0.601722 24.2853 0.878115L25.7288 5.32057C25.7689 5.44418 25.8841 5.52786 26.0141 5.52786H30.6851C30.9758 5.52786 31.0966 5.89975 30.8615 6.07057L27.0825 8.81616C26.9774 8.89255 26.9334 9.02796 26.9735 9.15157L28.417 13.594C28.5068 13.8704 28.1904 14.1003 27.9553 13.9294L24.1763 11.1838C24.0712 11.1074 23.9288 11.1075 23.8237 11.1838L20.0447 13.9294C19.8096 14.1003 19.4932 13.8704 19.583 13.594L21.0265 9.15157C21.0666 9.02796 21.0226 8.89255 20.9175 8.81616L17.1385 6.07057C16.9034 5.89975 17.0242 5.52786 17.3149 5.52786H21.9859C22.1159 5.52786 22.2311 5.44418 22.2712 5.32057L23.7147 0.878114Z" fill="#D7A060"/>
<path d="M39.7147 0.878114C39.8045 0.601721 40.1955 0.601722 40.2853 0.878115L41.7288 5.32057C41.7689 5.44418 41.8841 5.52786 42.0141 5.52786H46.6851C46.9758 5.52786 47.0966 5.89975 46.8615 6.07057L43.0825 8.81616C42.9774 8.89255 42.9334 9.02796 42.9735 9.15157L44.417 13.594C44.5068 13.8704 44.1904 14.1003 43.9553 13.9294L40.1763 11.1838C40.0712 11.1074 39.9288 11.1075 39.8237 11.1838L36.0447 13.9294C35.8096 14.1003 35.4932 13.8704 35.583 13.594L37.0265 9.15157C37.0666 9.02796 37.0226 8.89255 36.9175 8.81616L33.1385 6.07057C32.9034 5.89975 33.0242 5.52786 33.3149 5.52786H37.9859C38.1159 5.52786 38.2311 5.44418 38.2712 5.32057L39.7147 0.878114Z" fill="#D7A060"/>
<path d="M55.7147 0.878114C55.8045 0.601721 56.1955 0.601722 56.2853 0.878115L57.7288 5.32057C57.7689 5.44418 57.8841 5.52786 58.0141 5.52786H62.6851C62.9758 5.52786 63.0966 5.89975 62.8615 6.07057L59.0825 8.81616C58.9774 8.89255 58.9334 9.02796 58.9735 9.15157L60.417 13.594C60.5068 13.8704 60.1904 14.1003 59.9553 13.9294L56.1763 11.1838C56.0712 11.1074 55.9288 11.1075 55.8237 11.1838L52.0447 13.9294C51.8096 14.1003 51.4932 13.8704 51.583 13.594L53.0265 9.15157C53.0666 9.02796 53.0226 8.89255 52.9175 8.81616L49.1385 6.07057C48.9034 5.89975 49.0242 5.52786 49.3149 5.52786H53.9859C54.1159 5.52786 54.2311 5.44418 54.2712 5.32057L55.7147 0.878114Z" fill="#D7A060"/>
<path d="M70.7468 5.47508L72 1.61803L73.2532 5.47508C73.3603 5.8047 73.6675 6.02786 74.0141 6.02786H78.0696L74.7886 8.41165C74.5082 8.61536 74.3909 8.97646 74.498 9.30608L75.7512 13.1631L72.4702 10.7793C72.1898 10.5756 71.8102 10.5756 71.5298 10.7793L68.2488 13.1631L69.502 9.30608C69.6091 8.97646 69.4918 8.61536 69.2114 8.41165L65.9304 6.02786H69.9859C70.3325 6.02786 70.6397 5.8047 70.7468 5.47508Z" fill="white" stroke="#D7A060"/>
</svg>
